# xmcd CD database file
#
# Track frame offsets:
#	150
#	21198
#	40671
#	61987
#	78152
#	94741
#	112341
#	129735
#	143259
#	171346
#	194938
#	208480
#	227345
#	249537
#
# Disc length: 3502 seconds
#
# Revision: 0
# Processed by: cddbd v1.5PL3 Copyright (c) Steve Scherf et al.
# Submitted via: CDex 1.50
#
DISCID=c70dac0e
DTITLE=Lutz Eikelmann - The July Sessions
DYEAR=2001
DGENRE=Jazz
TTITLE0=All The Girls Go Crazy...
TTITLE1=The Glory Of Love
TTITLE2=We Shall Walk Through The Streets Of The City
TTITLE3=Joe Avery's Piece
TTITLE4=Hollondaise
TTITLE5=Honky Tonk Harp
TTITLE6=The Old Rugged Cross
TTITLE7=Take My Hand, Precious Lord, Lead Me On
TTITLE8=Am I Blue
TTITLE9=Over In The Gloryland
TTITLE10=When You Wore A Tulip...
TTITLE11=Just A Little While To Stay Here
TTITLE12=Buddy Bolden Blues
TTITLE13=John Casimir's Whoopin' Blues
EXTD=YEAR: 2001
EXTT0=
EXTT1=
EXTT2=
EXTT3=
EXTT4=
EXTT5=
EXTT6=
EXTT7=
EXTT8=
EXTT9=
EXTT10=
EXTT11=
EXTT12=
EXTT13=
PLAYORDER=
